<mxfile host="Electron" modified="2024-04-23T22:21:02.486Z" agent="Mozilla/5.0 (X11; Linux x86_64) AppleWebKit/537.36 (KHTML, like Gecko) draw.io/24.2.5 Chrome/120.0.6099.109 Electron/28.1.0 Safari/537.36" etag="_jVJGGH1Uh9XyD3fSjbU" version="24.2.5" type="device">
  <diagram id="R2lEEEUBdFMjLlhIrx00" name="Page-1">
    <mxGraphModel dx="1050" dy="662" grid="1" gridSize="10" guides="1" tooltips="1" connect="1" arrows="1" fold="1" page="1" pageScale="1" pageWidth="850" pageHeight="1100" math="0" shadow="0" extFonts="Permanent Marker^https://fonts.googleapis.com/css?family=Permanent+Marker">
      <root>
        <mxCell id="0" />
        <mxCell id="1" parent="0" />
        <mxCell id="mMzuyZn16wMFY4bVFlNY-8" style="edgeStyle=orthogonalEdgeStyle;rounded=0;orthogonalLoop=1;jettySize=auto;html=1;exitX=0;exitY=0.5;exitDx=0;exitDy=0;endArrow=none;endFill=0;" edge="1" parent="1" source="mMzuyZn16wMFY4bVFlNY-4" target="mMzuyZn16wMFY4bVFlNY-5">
          <mxGeometry relative="1" as="geometry" />
        </mxCell>
        <mxCell id="mMzuyZn16wMFY4bVFlNY-9" style="edgeStyle=orthogonalEdgeStyle;rounded=0;orthogonalLoop=1;jettySize=auto;html=1;exitX=0.5;exitY=0;exitDx=0;exitDy=0;endArrow=none;endFill=0;" edge="1" parent="1" source="mMzuyZn16wMFY4bVFlNY-4" target="mMzuyZn16wMFY4bVFlNY-6">
          <mxGeometry relative="1" as="geometry" />
        </mxCell>
        <mxCell id="mMzuyZn16wMFY4bVFlNY-10" style="edgeStyle=orthogonalEdgeStyle;rounded=0;orthogonalLoop=1;jettySize=auto;html=1;exitX=1;exitY=0.5;exitDx=0;exitDy=0;endArrow=none;endFill=0;" edge="1" parent="1" source="mMzuyZn16wMFY4bVFlNY-4" target="mMzuyZn16wMFY4bVFlNY-7">
          <mxGeometry relative="1" as="geometry" />
        </mxCell>
        <mxCell id="mMzuyZn16wMFY4bVFlNY-4" value="Clínica" style="whiteSpace=wrap;html=1;align=center;" vertex="1" parent="1">
          <mxGeometry x="375" y="530" width="100" height="40" as="geometry" />
        </mxCell>
        <mxCell id="mMzuyZn16wMFY4bVFlNY-5" value="Nome" style="ellipse;whiteSpace=wrap;html=1;align=center;fontStyle=4;" vertex="1" parent="1">
          <mxGeometry x="250" y="440" width="100" height="40" as="geometry" />
        </mxCell>
        <mxCell id="mMzuyZn16wMFY4bVFlNY-6" value="Morada" style="ellipse;whiteSpace=wrap;html=1;align=center;" vertex="1" parent="1">
          <mxGeometry x="375" y="440" width="100" height="40" as="geometry" />
        </mxCell>
        <mxCell id="mMzuyZn16wMFY4bVFlNY-7" value="Telefone" style="ellipse;whiteSpace=wrap;html=1;align=center;" vertex="1" parent="1">
          <mxGeometry x="500" y="440" width="100" height="40" as="geometry" />
        </mxCell>
        <mxCell id="mMzuyZn16wMFY4bVFlNY-14" value="(RI-1)" style="text;html=1;align=center;verticalAlign=middle;resizable=0;points=[];autosize=1;strokeColor=none;fillColor=none;" vertex="1" parent="1">
          <mxGeometry x="400" y="410" width="50" height="30" as="geometry" />
        </mxCell>
        <mxCell id="mMzuyZn16wMFY4bVFlNY-15" value="(RI-2)" style="text;html=1;align=center;verticalAlign=middle;resizable=0;points=[];autosize=1;strokeColor=none;fillColor=none;" vertex="1" parent="1">
          <mxGeometry x="525" y="410" width="50" height="30" as="geometry" />
        </mxCell>
        <mxCell id="mMzuyZn16wMFY4bVFlNY-18" value="" style="group" vertex="1" connectable="0" parent="1">
          <mxGeometry x="530" y="680" width="310" height="60" as="geometry" />
        </mxCell>
        <mxCell id="mMzuyZn16wMFY4bVFlNY-12" value="&lt;b&gt;(RI-2)&lt;/b&gt;&amp;nbsp;Cada clínica tem um número de telefone &lt;b&gt;único&lt;/b&gt;." style="text;html=1;align=left;verticalAlign=middle;resizable=0;points=[];autosize=1;strokeColor=none;fillColor=none;" vertex="1" parent="mMzuyZn16wMFY4bVFlNY-18">
          <mxGeometry y="30" width="310" height="30" as="geometry" />
        </mxCell>
        <mxCell id="mMzuyZn16wMFY4bVFlNY-13" value="&lt;b&gt;(RI-1)&lt;/b&gt;&amp;nbsp;Cada clínica tem uma morada&amp;nbsp;&lt;b&gt;única&lt;/b&gt;." style="text;html=1;align=left;verticalAlign=middle;resizable=0;points=[];autosize=1;strokeColor=none;fillColor=none;" vertex="1" parent="mMzuyZn16wMFY4bVFlNY-18">
          <mxGeometry width="260" height="30" as="geometry" />
        </mxCell>
      </root>
    </mxGraphModel>
  </diagram>
</mxfile>
